<svg width="736" height="73" viewBox="0 0 736 73" fill="none" xmlns="http://www.w3.org/2000/svg">
<path d="M17.0868 4.608V72H0.67075V4.608H17.0868ZM25.7193 45.12C25.7193 39.616 26.7433 34.784 28.7913 30.624C30.9033 26.464 33.7513 23.264 37.3353 21.024C40.9193 18.784 44.9193 17.664 49.3353 17.664C52.8553 17.664 56.0553 18.4 58.9353 19.872C61.8793 21.344 64.1833 23.328 65.8473 25.824V0.959999H82.2633V72H65.8473V64.32C64.3113 66.88 62.1033 68.928 59.2233 70.464C56.4073 72 53.1113 72.768 49.3353 72.768C44.9193 72.768 40.9193 71.648 37.3353 69.408C33.7513 67.104 30.9033 63.872 28.7913 59.712C26.7433 55.488 25.7193 50.624 25.7193 45.12ZM65.8473 45.216C65.8473 41.12 64.6953 37.888 62.3913 35.52C60.1513 33.152 57.3993 31.968 54.1353 31.968C50.8713 31.968 48.0873 33.152 45.7833 35.52C43.5433 37.824 42.4233 41.024 42.4233 45.12C42.4233 49.216 43.5433 52.48 45.7833 54.912C48.0873 57.28 50.8713 58.464 54.1353 58.464C57.3993 58.464 60.1513 57.28 62.3913 54.912C64.6953 52.544 65.8473 49.312 65.8473 45.216ZM144.635 44.352C144.635 45.888 144.54 47.488 144.348 49.152H107.196C107.452 52.48 108.508 55.04 110.364 56.832C112.284 58.56 114.62 59.424 117.372 59.424C121.468 59.424 124.316 57.696 125.916 54.24H143.388C142.492 57.76 140.86 60.928 138.492 63.744C136.188 66.56 133.276 68.768 129.756 70.368C126.236 71.968 122.3 72.768 117.948 72.768C112.7 72.768 108.028 71.648 103.932 69.408C99.8355 67.168 96.6355 63.968 94.3315 59.808C92.0275 55.648 90.8755 50.784 90.8755 45.216C90.8755 39.648 91.9955 34.784 94.2355 30.624C96.5395 26.464 99.7395 23.264 103.836 21.024C107.932 18.784 112.636 17.664 117.948 17.664C123.132 17.664 127.74 18.752 131.772 20.928C135.804 23.104 138.94 26.208 141.18 30.24C143.484 34.272 144.635 38.976 144.635 44.352ZM127.836 40.032C127.836 37.216 126.876 34.976 124.956 33.312C123.036 31.648 120.636 30.816 117.756 30.816C115.004 30.816 112.668 31.616 110.748 33.216C108.892 34.816 107.74 37.088 107.292 40.032H127.836ZM150.032 45.12C150.032 39.616 151.056 34.784 153.104 30.624C155.216 26.464 158.064 23.264 161.648 21.024C165.232 18.784 169.232 17.664 173.648 17.664C177.424 17.664 180.72 18.432 183.536 19.968C186.416 21.504 188.624 23.52 190.16 26.016V18.432H206.576V72H190.16V64.416C188.56 66.912 186.32 68.928 183.44 70.464C180.624 72 177.328 72.768 173.552 72.768C169.2 72.768 165.232 71.648 161.648 69.408C158.064 67.104 155.216 63.872 153.104 59.712C151.056 55.488 150.032 50.624 150.032 45.12ZM190.16 45.216C190.16 41.12 189.008 37.888 186.704 35.52C184.464 33.152 181.712 31.968 178.448 31.968C175.184 31.968 172.4 33.152 170.096 35.52C167.856 37.824 166.736 41.024 166.736 45.12C166.736 49.216 167.856 52.48 170.096 54.912C172.4 57.28 175.184 58.464 178.448 58.464C181.712 58.464 184.464 57.28 186.704 54.912C189.008 52.544 190.16 49.312 190.16 45.216ZM276.82 4.608V72H260.404V44.256H234.868V72H218.452V4.608H234.868V31.008H260.404V4.608H276.82ZM285.407 45.12C285.407 39.616 286.431 34.784 288.479 30.624C290.591 26.464 293.439 23.264 297.023 21.024C300.607 18.784 304.607 17.664 309.023 17.664C312.799 17.664 316.095 18.432 318.911 19.968C321.791 21.504 323.999 23.52 325.535 26.016V18.432H341.951V72H325.535V64.416C323.935 66.912 321.695 68.928 318.815 70.464C315.999 72 312.703 72.768 308.927 72.768C304.575 72.768 300.607 71.648 297.023 69.408C293.439 67.104 290.591 63.872 288.479 59.712C286.431 55.488 285.407 50.624 285.407 45.12ZM325.535 45.216C325.535 41.12 324.383 37.888 322.079 35.52C319.839 33.152 317.087 31.968 313.823 31.968C310.559 31.968 307.775 33.152 305.471 35.52C303.231 37.824 302.111 41.024 302.111 45.12C302.111 49.216 303.231 52.48 305.471 54.912C307.775 57.28 310.559 58.464 313.823 58.464C317.087 58.464 319.839 57.28 322.079 54.912C324.383 52.544 325.535 49.312 325.535 45.216ZM383.683 58.08V72H375.331C369.379 72 364.739 70.56 361.411 67.68C358.083 64.736 356.419 59.968 356.419 53.376V32.064H349.891V18.432H356.419V5.376H372.835V18.432H383.587V32.064H372.835V53.568C372.835 55.168 373.219 56.32 373.987 57.024C374.755 57.728 376.035 58.08 377.827 58.08H383.683ZM389.563 45.216C389.563 39.648 390.683 34.784 392.923 30.624C395.227 26.464 398.395 23.264 402.427 21.024C406.523 18.784 411.195 17.664 416.443 17.664C423.163 17.664 428.763 19.424 433.243 22.944C437.787 26.464 440.763 31.424 442.171 37.824H424.699C423.227 33.728 420.379 31.68 416.155 31.68C413.147 31.68 410.747 32.864 408.955 35.232C407.163 37.536 406.267 40.864 406.267 45.216C406.267 49.568 407.163 52.928 408.955 55.296C410.747 57.6 413.147 58.752 416.155 58.752C420.379 58.752 423.227 56.704 424.699 52.608H442.171C440.763 58.88 437.787 63.808 433.243 67.392C428.699 70.976 423.099 72.768 416.443 72.768C411.195 72.768 406.523 71.648 402.427 69.408C398.395 67.168 395.227 63.968 392.923 59.808C390.683 55.648 389.563 50.784 389.563 45.216ZM483.88 17.856C490.024 17.856 494.952 19.904 498.664 24C502.376 28.032 504.232 33.6 504.232 40.704V72H487.912V42.912C487.912 39.328 486.984 36.544 485.128 34.56C483.272 32.576 480.776 31.584 477.64 31.584C474.504 31.584 472.008 32.576 470.152 34.56C468.296 36.544 467.368 39.328 467.368 42.912V72H450.952V0.959999H467.368V25.632C469.032 23.264 471.304 21.376 474.184 19.968C477.064 18.56 480.296 17.856 483.88 17.856ZM532.056 59.328H553.56V72H515.64V4.608H532.056V59.328ZM558.126 45.12C558.126 39.616 559.15 34.784 561.198 30.624C563.31 26.464 566.158 23.264 569.742 21.024C573.326 18.784 577.326 17.664 581.742 17.664C585.518 17.664 588.814 18.432 591.63 19.968C594.51 21.504 596.718 23.52 598.254 26.016V18.432H614.67V72H598.254V64.416C596.654 66.912 594.414 68.928 591.534 70.464C588.718 72 585.422 72.768 581.646 72.768C577.294 72.768 573.326 71.648 569.742 69.408C566.158 67.104 563.31 63.872 561.198 59.712C559.15 55.488 558.126 50.624 558.126 45.12ZM598.254 45.216C598.254 41.12 597.102 37.888 594.798 35.52C592.558 33.152 589.806 31.968 586.542 31.968C583.278 31.968 580.494 33.152 578.19 35.52C575.95 37.824 574.83 41.024 574.83 45.12C574.83 49.216 575.95 52.48 578.19 54.912C580.494 57.28 583.278 58.464 586.542 58.464C589.806 58.464 592.558 57.28 594.798 54.912C597.102 52.544 598.254 49.312 598.254 45.216ZM642.962 26.016C644.498 23.52 646.706 21.504 649.586 19.968C652.466 18.432 655.762 17.664 659.474 17.664C663.89 17.664 667.89 18.784 671.474 21.024C675.058 23.264 677.874 26.464 679.922 30.624C682.034 34.784 683.09 39.616 683.09 45.12C683.09 50.624 682.034 55.488 679.922 59.712C677.874 63.872 675.058 67.104 671.474 69.408C667.89 71.648 663.89 72.768 659.474 72.768C655.698 72.768 652.402 72.032 649.586 70.56C646.77 69.024 644.562 67.008 642.962 64.512V72H626.546V0.959999H642.962V26.016ZM666.386 45.12C666.386 41.024 665.234 37.824 662.93 35.52C660.69 33.152 657.906 31.968 654.578 31.968C651.314 31.968 648.53 33.152 646.226 35.52C643.986 37.888 642.866 41.12 642.866 45.216C642.866 49.312 643.986 52.544 646.226 54.912C648.53 57.28 651.314 58.464 654.578 58.464C657.842 58.464 660.626 57.28 662.93 54.912C665.234 52.48 666.386 49.216 666.386 45.12ZM713.494 72.768C708.822 72.768 704.662 71.968 701.014 70.368C697.366 68.768 694.486 66.592 692.374 63.84C690.262 61.024 689.078 57.888 688.822 54.432H705.046C705.238 56.288 706.102 57.792 707.638 58.944C709.174 60.096 711.062 60.672 713.302 60.672C715.35 60.672 716.918 60.288 718.006 59.52C719.158 58.688 719.734 57.632 719.734 56.352C719.734 54.816 718.934 53.696 717.334 52.992C715.734 52.224 713.142 51.392 709.558 50.496C705.718 49.6 702.518 48.672 699.958 47.712C697.398 46.688 695.19 45.12 693.334 43.008C691.478 40.832 690.55 37.92 690.55 34.272C690.55 31.2 691.382 28.416 693.046 25.92C694.774 23.36 697.27 21.344 700.534 19.872C703.862 18.4 707.798 17.664 712.342 17.664C719.062 17.664 724.342 19.328 728.182 22.656C732.086 25.984 734.326 30.4 734.902 35.904H719.734C719.478 34.048 718.646 32.576 717.238 31.488C715.894 30.4 714.102 29.856 711.862 29.856C709.942 29.856 708.47 30.24 707.446 31.008C706.422 31.712 705.91 32.704 705.91 33.984C705.91 35.52 706.71 36.672 708.31 37.44C709.974 38.208 712.534 38.976 715.99 39.744C719.958 40.768 723.19 41.792 725.686 42.816C728.182 43.776 730.358 45.376 732.214 47.616C734.134 49.792 735.126 52.736 735.19 56.448C735.19 59.584 734.294 62.4 732.502 64.896C730.774 67.328 728.246 69.248 724.918 70.656C721.654 72.064 717.846 72.768 713.494 72.768Z" fill="white"/>
</svg>
